<?xml version="1.0" standalone="no"?>
<!DOCTYPE svg PUBLIC "-//W3C//DTD SVG 20010904//EN"
 "http://www.w3.org/TR/2001/REC-SVG-20010904/DTD/svg10.dtd">
<svg version="1.0" xmlns="http://www.w3.org/2000/svg"
 width="410.000000pt" height="410.000000pt" viewBox="0 0 410.000000 410.000000"
 preserveAspectRatio="xMidYMid meet">
<metadata>
Created by potrace 1.11, written by Peter Selinger 2001-2013
</metadata>
<g transform="translate(0.000000,410.000000) scale(0.100000,-0.100000)"
fill="#000000" stroke="none">
<path d="M1801 3233 c-18 -112 -22 -153 -27 -253 l-5 -96 -37 -19 c-34 -18
-37 -24 -40 -68 -3 -44 -6 -49 -42 -67 -54 -28 -155 -124 -199 -189 -87 -131
-133 -275 -151 -475 -35 -380 81 -805 281 -1038 l49 -56 -49 -36 c-32 -24 -54
-50 -65 -76 -11 -28 -22 -40 -35 -40 -11 0 -23 -4 -26 -10 -3 -5 -13 -10 -20
-10 -15 0 -106 -42 -161 -75 -30 -18 -31 -18 -60 4 -16 12 -63 33 -103 46 -99
34 -213 34 -333 1 -221 -61 -363 -199 -437 -425 -24 -73 -29 -231 -10 -307
l11 -44 447 2 446 3 0 100 c0 55 -4 128 -9 163 l-8 63 39 -21 c22 -11 53 -34
69 -51 28 -29 29 -34 33 -145 l3 -114 1349 0 1349 0 0 363 0 362 -22 14 c-59
37 -160 82 -228 100 -112 31 -274 29 -376 -4 -93 -30 -167 -72 -245 -137 -57
-47 -79 -53 -79 -22 0 24 -60 136 -84 156 -44 38 -128 70 -246 92 -16 3 -30
17 -39 36 -19 44 -80 79 -180 103 -47 11 -87 22 -89 23 -2 1 12 22 31 47 47
61 101 196 117 290 13 76 11 259 -6 587 -20 395 -144 674 -344 775 -36 18 -85
36 -109 40 -28 5 -53 17 -68 34 -14 14 -43 31 -65 36 -45 11 -50 18 -69 85 -7
25 -15 50 -19 55 -3 6 -17 44 -30 85 -13 41 -27 79 -32 85 -4 5 -8 15 -8 23 0
17 -38 72 -50 72 -4 0 -13 -30 -19 -67z m59 -45 c7 -24 17 -47 22 -52 4 -6 8
-16 8 -23 0 -7 8 -32 18 -56 33 -74 53 -143 47 -159 -15 -38 -136 -59 -156
-27 -12 18 -11 107 1 183 5 34 12 87 15 119 8 69 26 75 45 15z m-181 -674 c15
-35 -12 -95 -50 -108 -64 -22 -118 28 -85 79 18 28 67 54 102 55 13 0 25 -10
33 -26z m-144 -175 c15 -23 -6 -55 -50 -78 -25 -13 -45 -27 -45 -32 0 -5 -8
-13 -19 -18 -18 -10 -18 -8 -8 30 17 70 99 136 122 98z m618 -10 c58 -30 71
-86 36 -149 -52 -92 -189 -107 -242 -26 -37 56 -30 151 14 173 30 16 163 17
192 2z m-389 -60 c33 -39 35 -93 3 -140 -28 -42 -60 -59 -115 -59 -84 0 -121
37 -122 121 0 36 5 61 14 68 22 19 97 39 148 40 40 1 50 -3 72 -30z m-351
-264 c4 -8 30 -28 60 -45 52 -29 55 -32 65 -88 22 -111 22 -128 8 -147 -13
-18 -14 -18 -49 4 -20 12 -45 37 -56 55 -24 37 -51 144 -51 199 0 37 13 50 23
22z m67 -1245 c0 -5 -7 -7 -15 -4 -8 4 -15 8 -15 10 0 2 7 4 15 4 8 0 15 -4
15 -10z m-943 -262 c-3 -8 -6 -5 -6 6 -1 11 2 17 5 13 3 -3 4 -12 1 -19z
m1820 -114 c-3 -3 -12 -4 -19 -1 -8 3 -5 6 6 6 11 1 17 -2 13 -5z m66 -51 c-7
-2 -19 -2 -25 0 -7 3 -2 5 12 5 14 0 19 -2 13 -5z m-716 -19 c-3 -3 -12 -4
-19 -1 -8 3 -5 6 6 6 11 1 17 -2 13 -5z m596 -1 c-7 -2 -21 -2 -30 0 -10 3 -4
5 12 5 17 0 24 -2 18 -5z m-295 -20 c-15 -2 -42 -2 -60 0 -18 2 -6 4 27 4 33
0 48 -2 33 -4z"/>
<path d="M2047 2254 c-12 -12 -8 -41 7 -53 17 -14 39 9 34 36 -3 18 -29 29
-41 17z"/>
<path d="M1657 2223 c-4 -3 -7 -19 -7 -35 0 -21 5 -28 19 -28 24 0 34 25 21
51 -11 20 -22 24 -33 12z"/>
</g>
</svg>
